<?xml version="1.0" encoding="UTF-8"?>
<svg id="_レイヤー_1" data-name="レイヤー 1" xmlns="http://www.w3.org/2000/svg" width="18.30917mm" height="18.48556mm" viewBox="0 0 51.9 52.4">
  <line y1="52.4" x2="51.9" fill="none" stroke-width="0"/>
  <g>
    <path d="m22.5,24.80002c1.2,0,2,.89999,2,2s-.9,2.10001-2.1,2.10001c-1,0-2-.89999-2-2,0-1.20001.99999-2.10001,2.1-2.10001Zm0,3.69998c.5,0,.9-.20001,1.2-.5.1-.10001.1-.39999,0-.60001s-.3-.19998-.5-.19998c-.1,0-.1.10001-.2.10001-.3.29999-.6.29999-1,.20001-.2-.10001-.4,0-.5.20001s0,.39999.2.5c.3.29996.5.29996.8.29996Zm-.2-3.19998c-.4,0-.7.29999-.7.70001,0,.39999.3.70001.7.70001s.7-.29999.7-.70001-.3-.70001-.7-.70001Zm-1,2.10001c.2,0,.3-.10001.3-.29999,0-.20001-.1-.29999-.3-.29999s-.3.10001-.3.29999c0,.09998.10001.29999.3.29999Zm2-1.20001c0,.20001.1.29999.3.29999s.3-.10001.3-.29999c0-.20001-.1-.29999-.3-.29999s-.3.09998-.3.29999Zm.3.70001c0,.10001.1.20001.2.20001s.2-.10001.2-.20001,0-.20001-.2-.20001-.2.10001-.2.20001Z" stroke-width="0"/>
    <path d="m30.1,25c1.1,0,2,.89999,2,2,0,1.20001-.8,2-2,2-1.1,0-2.1-.89999-2-2.10001,0-.99997.9-1.89999,2-1.89999Zm-.1,3.70001c.4,0,.8-.10001,1.1-.39999.2-.20001.2-.60001,0-.70001-.2-.20001-.4-.20001-.7,0-.3.20001-.6.29999-1,.10001-.2-.10001-.4,0-.5.10001-.1.20001-.1.39999.1.5.39999.19998.7.39999,1,.39999Zm.39999-2.60001c0-.29999-.3-.60001-.6-.60001-.4,0-.6.29999-.6.60001,0,.39999.3.60001.6.60001s.6-.20001.6-.60001Zm.60001-.19998c-.2,0-.3.10001-.3.29999,0,.20001.1.29999.3.29999.1,0,.3-.20001.3-.29999,0-.20001-.2-.29999-.3-.29999Zm-2.10001,1.39999c.1,0,.2-.10001.2-.20001s-.1-.20001-.2-.20001-.2.10001-.2.20001.1.20001.2.20001Zm2.60001-.39999c0-.10001-.1-.20001-.2-.20001s-.2.10001-.2.20001.1.20001.2.20001c.09999-.00003.2-.10004.2-.20001Z" stroke-width="0"/>
    <path d="m36,20.5c0,.70001-.1,1.29999-.1,2-.1,1.10001-.4,2.20001-.7,3.20001v.10001c-.1.10001-.1.20001-.3.20001-.1,0-.1-.10001-.1-.29999.2-.5.3-.89999.4-1.39999.2-.70001.3-1.29999.4-2,.1-.79999.1-1.5.1-2.29999,0-.5-.1-1.10001-.2-1.60001h0c-.1-.29999-.3-.39999-.6-.29999-.4.10001-.8.20001-1.2.39999-.9.39999-1.8.89999-2.6,1.5-.4.29999-.7.60001-1.1.89999-.1.10001-.2.10001-.3,0-.1-.10001-.1-.20001,0-.29999.3-.29999.7-.60001,1-.79999.5-.39999,1.1-.70001,1.7-1,.5-.29999,1-.5,1.5-.70001.3-.10001.7-.29999,1-.29999.4,0,.6.10001.8.5.2.39999.2.79999.3,1.29999-.00002.19995-.00002.59995-.00002.89993Z" stroke-width="0"/>
    <path d="m16.89999,20.90003c0,1,.1,1.89999.3,2.89999l.3,1.20001v.10001c0,.10001,0,.20001-.1.29999-.1,0-.2-.10001-.2-.20001-.1-.29999-.2-.60001-.2-.89999-.1-.60001-.2-1.10001-.3-1.70001-.1-.70001-.1-1.39999-.1-2.10001s.1-1.39999.3-2.10001c.1-.20001.2-.5.3-.70001.1-.10001.3-.20001.4-.20001.4,0,.7.10001,1.1.29999,1.1.5,2.2,1.20001,3.2,1.89999.3.20001.6.5.9.70001l.2.20001c.1.10001.1.20001,0,.29999-.1.10001-.2.10001-.3,0-.1-.10001-.2-.20001-.3-.29999-.7-.60001-1.5-1.20001-2.3-1.70001-.6-.29999-1.1-.60001-1.7-.89999-.2-.10001-.5-.10001-.7-.20001-.1,0-.2,0-.3.10001-.2.29999-.2.60001-.3.89999-.1.39999-.1.79999-.2,1.20001,0,.30005,0,.60004,0,.90005Z" stroke-width="0"/>
    <path d="m32.1,21.5c.2,0,.3-.10001.5-.10001.3-.10001.5-.10001.8,0,.1,0,.1.10001.2.10001,0,.06668-.03333.13336-.1.20001-.1.10001-.3.20001-.4.29999l-.1.10001c.3,0,.5.10001.7.20001.1,0,.2.10001.2.20001s-.1.10001-.2.20001-.3.10001-.4.20001c0,0-.1,0,0,.10001.4.39999.8.70001,1,1.29999.1-.20001.2-.29999.3-.5.1-.20001.1-.39999.1-.60001,0-.10001.1-.20001.2-.20001s.1.10001.1.20001c-.1.5-.2.89999-.5,1.29999,0,0,0,.10001-.1.10001-.1.20001-.3.10001-.3,0-.1-.20001-.3-.5-.4-.70001-.2-.29999-.5-.5-.8-.70001-.2-.10001-.2-.20001,0-.29999.1-.10001.2-.20001.4-.20001-.2-.10001-.3-.10001-.5-.10001h-.2c-.2,0-.2-.10001-.1-.29999.1-.10001.2-.20001.3-.29999l.1-.10001c-.3,0-.6.10001-.9.20001-.1,0-.2.10001-.3.10001-.1,0-.2.10001-.2,0-.1-.10001,0-.10001,0-.20001.2-.39999.5-.79999.8-1.20001.3-.39999.7-.79999,1-1.10001.3-.29999.6-.5.9-.70001.1-.10001.3-.10001.4-.10001s.2.10001.2.20001c.1.29999.2.60001.1.89999,0,.10001-.1.10001-.2.10001s-.1-.10001-.1-.10001c0-.20001,0-.39999-.1-.70001,0-.20001-.1-.20001-.3-.10001-.3.10001-.5.29999-.8.60001s-.89999,1.00003-1.3,1.70001h0Z" stroke-width="0"/>
    <path d="m19.7,21.40003c.1.10001.2.20001.4.29999.1.10001.1.20001.1.29999,0,.10001-.1.10001-.2.10001-.2,0-.4,0-.7.10001.1.10001.2.10001.3.20001.2.10001.2.20001,0,.39999-.5.29999-.9.79999-1.2,1.29999-.1.20001-.2.20001-.4,0-.3-.39999-.4-.89999-.5-1.29999,0-.10001,0-.20001.1-.20001h.1c.1,0,.1.10001.1.20001,0,.39999.1.70001.3,1,0,0,0,.10001.1.10001,0,0,.1,0,.1-.10001.3-.39999.6-.79999,1-1.10001.06667-.06665.06667-.10001,0-.10001-.1-.10001-.3-.10001-.4-.20001s-.2-.20001,0-.29999c.2-.10001.5-.20001.7-.20001h.1c-.2-.10001-.3-.20001-.5-.29999-.1,0-.2-.10001-.1-.20001,0-.10001.1-.10001.2-.10001.4,0,.8,0,1.3.20001-.2-.29999-.3-.60001-.5-.79999-.3-.5-.7-.89999-1.2-1.29999-.2-.20001-.4-.39999-.7-.5-.13333-.06668-.23334-.03336-.3.10001-.1.20001-.1.39999-.1.60001,0,.10001,0,.20001-.1.20001s-.2-.10001-.2-.10001c0-.29999,0-.60001.2-.89999.1-.10001.3-.20001.5-.10001.3.10001.5.29999.7.5.7.5,1.2,1.20001,1.6,1.89999.2.20001.3.5.5.79999v.30002h-.2c-.2-.10001-.3-.20001-.5-.29999-.2-.40005-.40001-.50003-.60001-.50003Z" stroke-width="0"/>
    <path d="m26.1,30.20002c-.1.29999-.3.5-.6.60001-.4.20001-.9.20001-1.2-.10001-.3-.20001-.4-.5-.3-.79999,0-.10001.1-.20001.2-.20001s.2.10001.1.20001c0,.29999.2.60001.6.60001.6.10001,1-.39999,1.1-.89999,0-.10001,0-.20001-.1-.20001s-.1-.10001-.2-.10001c-.2-.20001-.1-.5.3-.60001h.5c.3.10001.3.29999.1.5-.06667.06665-.13333.10001-.2.10001-.1,0-.1.10001-.1.20001.1.29999.2.60001.5.79999.3.20001.8.10001,1-.20001.1-.10001.1-.20001.1-.29999,0-.10001.1-.20001.2-.20001s.2.10001.2.29999c0,.5-.4.89999-.9.89999-.6.20001-1-.09998-1.3-.59998Z" stroke-width="0"/>
    <path d="m38.7,34.90003c-.06667.00003-.13333-.03336-.2-.10001-.2-.20001-.4-.39999-.6-.60001-.6-.60001-1.2-1.10001-1.9-1.60001-.6-.39999-1.3-.79999-2-1.20001-.2-.10001-.5-.20001-.7-.29999-.1,0-.2-.10001-.1-.20001,0-.10001.1-.10001.2-.10001h0c.8.29999,1.5.70001,2.2,1.10001.6.39999,1.1.79999,1.7,1.20001.5.39999,1,.89999,1.5,1.39999.06667.06668.09999.13336.1.20001-.06667.13333-.13332.20004-.2.20001Z" stroke-width="0"/>
    <path d="m36.89999,28.60001c1,0,2,.20001,3,.5.1,0,.2.10001.2.20001s-.1.10001-.3.10001c-.5-.20001-.9-.29999-1.4-.39999-.3,0-.6-.10001-.9-.10001h-.9c-.6,0-1.1.10001-1.7.20001-.4.10001-.9.20001-1.3.29999h-.1c-.1,0-.2,0-.2-.10001s0-.20001.1-.20001c.3-.10001.6-.20001.9-.29999.4-.10001.9-.20001,1.3-.20001h1.3Z" stroke-width="0"/>
    <path d="m13.2,34.20002c0-.10001.1-.10001.1-.20001.2-.29999.5-.5.7-.79999.9-.89999,1.9-1.60001,3-2.29999.3-.20001.6-.39999,1-.5h.1c.1,0,.2,0,.2.10001s0,.20001-.1.20001-.1.10001-.2.10001c-.9.39999-1.8,1-2.6,1.60001-.6.39999-1.1,1-1.6,1.5-.1.10001-.3.29999-.4.5,0,.10001-.1.10001-.2,0v-.20004Z" stroke-width="0"/>
    <path d="m17.3,29.70002h0c.2,0,.3.10001.3.20001s-.1.10001-.2.10001c-.4,0-.7.10001-1.1.10001-.7.10001-1.4.39999-2,.70001-.6.29999-1.1.60001-1.6.89999-.2.10001-.4.29999-.6.39999,0,0-.1,0-.1.10001h-.2v-.20001c.1-.10001.2-.20001.4-.29999.5-.39999,1.1-.70001,1.7-1,.8-.39999,1.6-.60001,2.4-.79999.29999-.20004.69999-.20004.99998-.20004Z" stroke-width="0"/>
    <path d="m17.89999,28.90003c0,.10001-.1.20001-.3.20001-.4-.20001-.9-.29999-1.3-.29999h-.3c-.4,0-.7-.10001-1.1,0h-.5c-.6,0-1.1.20001-1.7.29999-.2.10001-.4.10001-.6.20001-.1,0-.2,0-.2-.10001s0-.20001.1-.20001c.5-.20001,1.1-.29999,1.7-.39999s1.3-.20001,1.9-.10001c.7,0,1.5.10001,2.1.39999.10001-.20001.2-.10001.2,0Z" stroke-width="0"/>
    <path d="m34.3,29.90003c.7,0,1.3.10001,2,.29999,1,.20001,1.9.60001,2.7,1.10001.1.10001.2.10001.1.20001s-.1.10001-.2.10001c-.4-.20001-.8-.39999-1.2-.60001-.8-.29999-1.6-.60001-2.5-.70001-.3,0-.7-.10001-1-.10001h-.2c-.1,0-.1-.10001-.1-.20001s.1-.10001.2-.10001c-.1.00003,0,.00003.2.00003Z" stroke-width="0"/>
    <path d="m23,23.20002v.20001c-.3.39999-.7.60001-1.1.70001h-.1c-.1,0-.2-.10001-.2-.20001s.1-.20001.2-.20001h.3c.3-.10001.5-.20001.7-.5,0-.10001.1-.10001.2-.10001-.10001,0,0,0,0,.10001Z" stroke-width="0"/>
    <path d="m30.5,24.20002c-.5,0-.9-.20001-1.2-.5-.1-.10001-.1-.20001,0-.29999.1-.10001.2,0,.3,0,.1.10001.2.20001.4.29999.2.10001.3.10001.5.10001s.3.10001.3.20001c-.00002.19998-.10001.19998-.30001.19998h0Z" stroke-width="0"/>
    <path d="m19,30.40003c0-.06668.03333-.13336.1-.20001.2-.29999.4-.60001.7-1l.1-.10001c.06667-.06665.13333-.06665.2,0,.1,0,.1.10001,0,.20001s-.2.29999-.3.39999c-.2.20001-.3.5-.5.70001,0,.10001-.1.10001-.2.10001,0,.09998-.09999.09998-.09999-.10001,0,.09998,0,0,0,0Z" stroke-width="0"/>
    <path d="m30.5,31c-.1,0-.2-.10001-.2-.20001.2-.39999.4-.70001.6-1.10001.06667-.06665.13333-.09998.2-.10001.1.10001.1.20001.1.20001-.2.39999-.4.70001-.6,1.10001,0,.06665-.03333.09998-.1.10001Z" stroke-width="0"/>
    <path d="m19.89999,30.60001s0-.10001.1-.10001c.2-.29999.4-.60001.6-.89999.1-.10001.1-.20001.3-.10001.1.10001.1.20001,0,.29999-.2.29999-.4.70001-.6,1,0,.10001-.1.10001-.2.10001-.1-.19998-.2-.19998-.2-.29999Z" stroke-width="0"/>
    <path d="m31.5,30.90003c-.2,0-.2-.10001-.2-.29999.1-.29999.3-.5.4-.70001.1-.10001.1-.20001.2-.29999.06667-.06668.13333-.10001.2-.10001.06667.06668.1.13333.1.20001-.2.29999-.4.70001-.6,1,0,.19998-.1.19998-.1.19998Z" stroke-width="0"/>
    <path d="m32.2,30.80002v-.10001c.1-.29999.2-.5.4-.70001.1-.10001.1-.20001.3-.10001.1.10001.1.20001.1.29999-.1.29999-.3.5-.4.79999,0,.10001-.1.10001-.2.10001-.13333-.13327-.2-.23331-.2-.29996Z" stroke-width="0"/>
    <path d="m21.6,29.80002c0,.10001-.1.29999-.2.39999s-.1.20001-.2.39999c0,.10001-.1.20001-.2.10001-.1,0-.1-.10001-.1-.20001.1-.29999.2-.5.4-.70001,0-.10001.1-.10001.2-.10001,0,.00003.09999.10004.09999.10004Z" stroke-width="0"/>
  </g>
</svg>